<svg xmlns="http://www.w3.org/2000/svg" xmlns:xlink="http://www.w3.org/1999/xlink" width="500" zoomAndPan="magnify" viewBox="0 0 375 374.999991" height="500" preserveAspectRatio="xMidYMid meet" version="1.0"><defs><clipPath id="bb6725f256"><path d="M 1 22 L 374 22 L 374 353.578125 L 1 353.578125 Z M 1 22 " clip-rule="nonzero"/></clipPath></defs><rect x="-37.5" width="450" fill="#ffffff" y="-37.499999" height="449.999989" fill-opacity="1"/><rect x="-37.5" width="450" fill="#d3e4cd" y="-37.499999" height="449.999989" fill-opacity="1"/><g clip-path="url(#bb6725f256)"><path fill="#99a799" d="M 201.234375 165.523438 C 201.027344 164.796875 200.820312 163.96875 200.613281 163.242188 C 200.613281 163.554688 200.507812 163.863281 200.507812 164.175781 C 200.40625 165.003906 200.820312 165.523438 201.234375 165.835938 C 201.234375 165.628906 201.234375 165.523438 201.234375 165.523438 Z M 204.761719 164.589844 C 204.550781 163.65625 204.242188 162.722656 204.035156 161.792969 C 203.929688 162.621094 203.828125 163.554688 203.722656 164.382812 C 203.515625 165.835938 202.167969 166.25 201.234375 165.730469 C 201.960938 167.597656 205.277344 166.664062 204.761719 164.589844 Z M 210.667969 353.464844 C 210.980469 353.464844 211.394531 353.359375 211.808594 353.359375 C 211.394531 353.359375 210.980469 353.359375 210.667969 353.464844 Z M 204.761719 164.589844 C 204.550781 163.65625 204.242188 162.722656 204.035156 161.792969 C 203.929688 162.621094 203.828125 163.554688 203.722656 164.382812 C 203.515625 165.835938 202.167969 166.25 201.234375 165.730469 C 201.960938 167.597656 205.277344 166.664062 204.761719 164.589844 Z M 371.96875 59.0625 C 369.585938 49.9375 364.609375 42.0625 357.765625 36.152344 C 344.394531 24.542969 325.734375 21.328125 308.941406 23.402344 C 290.902344 25.578125 273.59375 34.597656 259.183594 46.414062 C 244.253906 58.648438 232.125 74.507812 222.796875 91.921875 C 213.261719 109.753906 206.523438 129.242188 202.789062 149.351562 C 202.480469 150.90625 202.167969 152.460938 201.960938 154.121094 C 201.546875 152.875 201.234375 151.632812 200.820312 150.386719 C 194.394531 131.210938 184.855469 113.171875 172.3125 97.3125 C 159.875 81.867188 144.636719 68.496094 126.703125 59.269531 C 109.390625 50.355469 89.070312 44.859375 68.753906 46.207031 C 49.679688 47.453125 29.257812 54.1875 15.574219 68.390625 C 8.527344 75.648438 3.964844 84.457031 2.203125 93.890625 C 0.128906 105.605469 2.617188 117.214844 7.074219 127.6875 C 11.738281 138.675781 18.582031 148.417969 25.941406 157.75 C 33.40625 167.183594 41.59375 176.097656 50.300781 184.492188 C 67.71875 201.496094 86.894531 216.734375 105.867188 231.972656 C 124.9375 247.3125 144.011719 262.65625 161.015625 280.175781 C 178.015625 297.695312 193.046875 317.285156 203.515625 339.261719 C 205.796875 343.925781 207.765625 348.800781 209.527344 353.671875 C 209.839844 353.671875 210.253906 353.566406 210.566406 353.464844 C 210.875 353.464844 211.289062 353.359375 211.707031 353.359375 C 212.121094 353.257812 212.429688 353.257812 212.742188 353.257812 C 212.84375 353.152344 212.949219 352.945312 213.15625 352.84375 C 213.570312 352.429688 213.882812 352.011719 214.296875 351.597656 C 215.332031 346.519531 216.679688 341.542969 218.132812 336.566406 C 225.285156 313.035156 236.6875 291.058594 249.957031 270.742188 C 263.226562 250.527344 278.566406 231.972656 293.804688 213.621094 C 309.046875 195.171875 324.492188 176.824219 338.175781 157.023438 C 345.015625 147.175781 351.339844 137.015625 357.039062 126.339844 C 362.640625 115.867188 367.71875 104.984375 370.722656 93.375 C 373.730469 82.28125 374.871094 70.257812 371.96875 59.0625 Z M 369.480469 84.457031 C 367.511719 96.171875 363.054688 107.367188 357.871094 117.839844 C 352.582031 128.515625 346.570312 138.675781 340.039062 148.523438 C 326.980469 168.21875 312.050781 186.464844 297.125 204.5 C 282.195312 222.539062 266.957031 240.367188 253.480469 259.753906 C 239.902344 279.136719 227.980469 300.078125 219.582031 322.574219 C 216.371094 331.074219 213.777344 339.78125 211.808594 348.59375 C 208.699219 340.714844 205.070312 333.042969 200.820312 325.683594 C 189.003906 305.054688 173.351562 286.5 156.140625 269.910156 C 139.039062 253.429688 120.171875 238.605469 101.511719 223.679688 C 82.851562 208.648438 64.296875 193.511719 47.605469 176.511719 C 39.3125 168.011719 31.433594 159.097656 24.386719 149.558594 C 17.441406 140.125 11.222656 129.96875 7.800781 118.667969 C 4.484375 107.992188 3.964844 96.484375 8.320312 85.597656 C 11.738281 77.097656 17.960938 69.84375 25.527344 64.347656 C 41.285156 52.839844 62.222656 48.382812 80.984375 49.730469 C 101.199219 51.183594 120.273438 58.542969 136.550781 69.21875 C 153.136719 80.105469 166.820312 94.722656 177.601562 110.996094 C 188.070312 126.960938 195.949219 144.582031 200.71875 163.242188 C 200.925781 163.96875 201.132812 164.796875 201.339844 165.523438 C 201.339844 165.628906 201.339844 165.628906 201.441406 165.730469 C 202.375 166.25 203.722656 165.835938 203.929688 164.382812 C 204.035156 163.554688 204.136719 162.621094 204.242188 161.792969 C 206.730469 142.71875 211.914062 123.953125 219.582031 106.433594 C 227.460938 88.5 238.242188 71.707031 251.71875 58.023438 C 264.988281 44.652344 281.054688 34.078125 298.679688 29.101562 C 315.058594 24.542969 333.925781 25.265625 348.851562 33.871094 C 356.003906 38.019531 362.121094 44.132812 365.957031 51.910156 C 370.621094 61.859375 371.242188 73.367188 369.480469 84.457031 Z M 369.480469 84.457031 " fill-opacity="1" fill-rule="nonzero"/></g></svg>