<svg xmlns="http://www.w3.org/2000/svg" xmlns:xlink="http://www.w3.org/1999/xlink" width="500" zoomAndPan="magnify" viewBox="0 0 375 74.999997" height="100" preserveAspectRatio="xMidYMid meet" version="1.0"><defs><g/><clipPath id="7cea7efa2a"><path d="M 18 17 L 91 17 L 91 32 L 18 32 Z M 18 17 " clip-rule="nonzero"/></clipPath><clipPath id="72376a418b"><path d="M 19.011719 15.964844 L 90.984375 17.996094 L 90.601562 31.492188 L 18.632812 29.460938 Z M 19.011719 15.964844 " clip-rule="nonzero"/></clipPath><clipPath id="408f0779df"><path d="M 90.808594 17.992188 L 18.835938 15.960938 L 18.457031 29.453125 L 90.429688 31.488281 Z M 90.808594 17.992188 " clip-rule="nonzero"/></clipPath></defs><rect x="-37.5" width="450" fill="#ffffff" y="-7.5" height="89.999996" fill-opacity="1"/><rect x="-37.5" width="450" fill="#d3e4cd" y="-7.5" height="89.999996" fill-opacity="1"/><g clip-path="url(#7cea7efa2a)"><g clip-path="url(#72376a418b)"><g clip-path="url(#408f0779df)"><path fill="#99a799" d="M 90.003906 26.410156 C 87.402344 34.597656 73.371094 28.335938 71.496094 26.882812 C 79.367188 19.773438 72.804688 14.554688 70.050781 19.769531 C 65.417969 15.15625 61.1875 23.363281 70.421875 27.078125 C 65.996094 30.804688 52.652344 27.644531 40.164062 21.441406 C 29.429688 16.113281 19.195312 17.207031 18.820312 22.84375 C 19.285156 22.929688 19.539062 22.808594 19.585938 22.640625 C 21.851562 15.121094 35.789062 20.242188 40.640625 22.554688 C 51.253906 27.605469 64.234375 31.566406 70.988281 27.589844 C 74.238281 29.089844 86.878906 35.382812 90.546875 27.25 Z M 70.917969 26.664062 C 63.25 23.46875 65.078125 15.390625 70.132812 20.929688 C 73.082031 15.066406 77.59375 20.671875 70.917969 26.664062 Z M 70.917969 26.664062 " fill-opacity="1" fill-rule="evenodd"/></g></g></g><g fill="#99a799" fill-opacity="1"><g transform="translate(87.627912, 49.013591)"><g><path d="M 53.292969 13.261719 C 44.726562 13.601562 57.988281 -16.894531 42.984375 -18.199219 C 54.792969 -34.707031 63.265625 -53.582031 66.652344 -42.449219 C 66.507812 -42.449219 67.136719 -42.402344 67.425781 -42.449219 C 63.167969 -55.859375 53.390625 -33.980469 42.0625 -18.34375 C 41.433594 -18.101562 41.433594 -18.199219 39.257812 -17.765625 C 41.242188 -31.316406 40.320312 -45.308594 32.285156 -46.324219 C 23.234375 -47.484375 15.488281 -35.867188 15.539062 -24.203125 C 3.582031 -29.332031 -3.386719 -19.507812 1.597656 -11.375 L 2.855469 -11.375 C -2.46875 -18.101562 2.855469 -28.558594 15.441406 -23.523438 C 15.632812 -12.488281 20.378906 -7.746094 23.476562 -8.472656 C 26.960938 -8.953125 29.625 -17.230469 16.507812 -23.960938 C 16.167969 -34.320312 23.332031 -46.226562 32.285156 -45.546875 C 37.949219 -45.113281 38.238281 -29.527344 35.480469 -14.085938 C 32.429688 3 28.460938 16.941406 17.621094 16.457031 C 4.9375 15.875 1.597656 -2.273438 19.070312 -7.164062 C 20.039062 -6.246094 21.105469 -7.988281 19.265625 -7.988281 C -0.582031 -4.019531 3.679688 19.699219 21.203125 17.28125 C 34.511719 14.28125 36.933594 -4.984375 39.257812 -16.941406 C 40.222656 -17.230469 41.628906 -17.523438 42.789062 -17.425781 C 53.632812 -16.699219 40.128906 14.183594 52.953125 14.183594 C 58.183594 14.183594 63.265625 1.695312 71.445312 -11.421875 C 71.398438 -11.957031 70.769531 -11.761719 70.621094 -11.519531 C 64.039062 -1.308594 57.40625 13.117188 53.292969 13.261719 Z M 23.71875 -9.148438 C 21.441406 -8.324219 17.039062 -10.792969 16.359375 -23.136719 C 28.027344 -16.894531 26.1875 -10.019531 23.71875 -9.148438 Z M 23.71875 -9.148438 "/></g></g></g><g fill="#99a799" fill-opacity="1"><g transform="translate(158.150359, 49.013591)"><g><path d="M 5.855469 2.902344 C -0.339844 6.921875 2.664062 -7.839844 3.921875 -15.199219 C 4.257812 -17.183594 1.355469 -16.652344 0.339844 -14.039062 C -0.386719 -11.570312 -1.550781 -2.855469 -0.582031 0.675781 C 0.386719 4.742188 3.679688 5.46875 6.726562 3.144531 C 11.085938 -0.0976562 16.167969 -7.890625 18.828125 -11.375 C 18.828125 -11.617188 18.199219 -11.617188 18.007812 -11.421875 C 15.925781 -8.761719 10.019531 0.144531 5.855469 2.902344 Z M 3 -19.507812 C 4.40625 -19.507812 5.082031 -23.039062 3.824219 -23.429688 C 1.839844 -23.621094 1.308594 -19.507812 3 -19.507812 Z M 3 -19.507812 "/></g></g></g><g fill="#99a799" fill-opacity="1"><g transform="translate(176.107683, 49.013591)"><g><path d="M 3.4375 -14.8125 C 3.628906 -16.699219 0.824219 -15.488281 0.339844 -13.554688 C -1.066406 -4.792969 -0.628906 -6.195312 -1.453125 -0.0976562 C -1.597656 1.113281 0.289062 2.179688 1.015625 0 L 1.9375 -4.890625 C 5.664062 -17.523438 11.421875 -23.039062 13.941406 -21.203125 C 16.457031 -19.410156 9.050781 0.339844 13.503906 2.664062 C 14.761719 3.292969 15.441406 3.292969 17.136719 2.03125 C 21.492188 -1.210938 26.332031 -7.890625 28.996094 -11.375 C 28.996094 -11.617188 28.363281 -11.617188 28.171875 -11.421875 C 26.089844 -8.761719 20.523438 -0.824219 16.265625 1.789062 C 9.050781 6.195312 21.007812 -16.507812 14.425781 -21.78125 C 12.003906 -23.667969 7.019531 -20.523438 2.757812 -9.679688 C 3 -11.277344 3.195312 -12.730469 3.4375 -14.8125 Z M 3.4375 -14.8125 "/></g></g></g><g fill="#99a799" fill-opacity="1"><g transform="translate(203.890715, 49.013591)"><g><path d="M 19.121094 5.519531 C 23.476562 2.273438 29.671875 -7.890625 32.335938 -11.375 C 32.335938 -11.617188 31.703125 -11.617188 31.511719 -11.421875 C 29.429688 -8.761719 22.410156 2.515625 18.25 5.277344 C 16.652344 6.292969 15.246094 6.679688 14.667969 5.953125 C 12.925781 3.679688 15.78125 -9.148438 17.039062 -14.425781 C 32.867188 -32.1875 31.851562 -40.371094 26.960938 -40.371094 C 20.476562 -40.371094 15.585938 -30.011719 13.117188 -12.777344 C 11.761719 -16.023438 9.730469 -18.925781 7.117188 -18.976562 C -1.160156 -19.070312 -2.808594 -1.453125 1.695312 0.0976562 C 4.5 1.066406 8.761719 -3.628906 12.632812 -9.101562 C 11.859375 -3.195312 11.421875 1.984375 11.957031 4.019531 C 12.828125 7.308594 15.246094 8.472656 19.121094 5.519531 Z M 17.183594 -15.683594 C 18.585938 -28.65625 23.621094 -39.59375 26.769531 -39.59375 C 30.738281 -39.59375 31.703125 -33.011719 17.183594 -15.683594 Z M 7.117188 -18.25 C 9.679688 -18.441406 11.90625 -13.988281 12.925781 -11.375 L 12.777344 -10.40625 C 7.40625 -2.757812 3.824219 0.046875 2.664062 -0.53125 C 0 -1.886719 3.628906 -17.957031 7.117188 -18.25 Z M 7.117188 -18.25 "/></g></g></g><g fill="#99a799" fill-opacity="1"><g transform="translate(235.013522, 49.013591)"><g><path d="M 13.117188 2.902344 C 6.195312 7.648438 11.375 -13.84375 14.570312 -19.167969 C 14.859375 -20.328125 12.054688 -20.960938 11.085938 -18.828125 L 10.648438 -17.957031 C 7.9375 -19.121094 1.597656 -18.25 0 -11.570312 C -1.113281 -6.824219 0.773438 -3.582031 3.195312 -4.113281 C 4.550781 -4.40625 6.097656 -7.359375 9.390625 -13.699219 C 6.097656 -5.226562 6.4375 8.710938 13.988281 3.144531 C 18.34375 -0.0976562 23.429688 -7.890625 26.089844 -11.375 C 26.089844 -11.617188 25.460938 -11.617188 25.265625 -11.421875 C 23.1875 -8.761719 17.328125 0.195312 13.117188 2.902344 Z M 10.359375 -17.28125 C 7.9375 -12.777344 4.597656 -5.855469 3.535156 -5.082031 C 1.402344 -7.550781 4.257812 -19.699219 10.359375 -17.28125 Z M 10.359375 -17.28125 "/></g></g></g><g fill="#99a799" fill-opacity="1"><g transform="translate(206.42594, 64.932601)"><g><path d="M 3.84375 -3.140625 C 4.15625 -2.992188 4.398438 -2.800781 4.578125 -2.5625 C 4.753906 -2.332031 4.84375 -2.066406 4.84375 -1.765625 C 4.84375 -1.148438 4.644531 -0.703125 4.25 -0.421875 C 3.851562 -0.140625 3.351562 0 2.75 0 L 0.765625 0 L 0.765625 -5.96875 L 2.515625 -5.96875 C 3.148438 -5.96875 3.648438 -5.835938 4.015625 -5.578125 C 4.378906 -5.328125 4.5625 -4.957031 4.5625 -4.46875 C 4.5625 -4.164062 4.5 -3.898438 4.375 -3.671875 C 4.25 -3.453125 4.070312 -3.273438 3.84375 -3.140625 Z M 1.953125 -3.53125 L 2.65625 -3.53125 C 2.875 -3.53125 3.039062 -3.59375 3.15625 -3.71875 C 3.28125 -3.851562 3.34375 -4.019531 3.34375 -4.21875 C 3.34375 -4.414062 3.273438 -4.566406 3.140625 -4.671875 C 3.003906 -4.773438 2.816406 -4.828125 2.578125 -4.828125 L 1.953125 -4.828125 Z M 2.703125 -1.09375 C 2.972656 -1.09375 3.191406 -1.144531 3.359375 -1.25 C 3.535156 -1.363281 3.625 -1.535156 3.625 -1.765625 C 3.625 -2.179688 3.289062 -2.390625 2.625 -2.390625 L 1.953125 -2.390625 L 1.953125 -1.09375 Z M 2.703125 -1.09375 "/></g></g></g><g fill="#99a799" fill-opacity="1"><g transform="translate(213.755192, 64.932601)"><g><path d="M 4.84375 -5.96875 L 4.84375 -4.828125 L 1.953125 -4.828125 L 1.953125 -3.5625 L 4.515625 -3.5625 L 4.515625 -2.421875 L 1.953125 -2.421875 L 1.953125 -1.140625 L 4.953125 -1.140625 L 4.953125 0 L 0.765625 0 L 0.765625 -5.96875 Z M 4.84375 -5.96875 "/></g></g></g><g fill="#99a799" fill-opacity="1"><g transform="translate(221.238485, 64.932601)"><g><path d="M 3.71875 -1.171875 L 1.75 -1.171875 L 1.25 0 L 0.09375 0 L 2.796875 -6.203125 L 2.859375 -6.203125 L 5.546875 0 L 4.1875 0 Z M 3.328125 -2.15625 L 2.75 -3.609375 L 2.15625 -2.15625 Z M 3.328125 -2.15625 "/></g></g></g><g fill="#99a799" fill-opacity="1"><g transform="translate(228.965015, 64.932601)"><g><path d="M 1.828125 -2.203125 C 1.828125 -2.015625 1.882812 -1.832031 2 -1.65625 C 2.113281 -1.488281 2.265625 -1.347656 2.453125 -1.234375 C 2.640625 -1.128906 2.84375 -1.078125 3.0625 -1.078125 C 3.289062 -1.078125 3.5 -1.128906 3.6875 -1.234375 C 3.882812 -1.347656 4.039062 -1.488281 4.15625 -1.65625 C 4.269531 -1.832031 4.328125 -2.015625 4.328125 -2.203125 L 4.328125 -5.96875 L 5.484375 -5.96875 L 5.484375 -2.1875 C 5.484375 -1.757812 5.375 -1.375 5.15625 -1.03125 C 4.9375 -0.6875 4.640625 -0.414062 4.265625 -0.21875 C 3.898438 -0.03125 3.5 0.0625 3.0625 0.0625 C 2.613281 0.0625 2.207031 -0.03125 1.84375 -0.21875 C 1.476562 -0.414062 1.1875 -0.6875 0.96875 -1.03125 C 0.757812 -1.375 0.65625 -1.757812 0.65625 -2.1875 L 0.65625 -5.96875 L 1.828125 -5.96875 Z M 1.828125 -2.203125 "/></g></g></g><g fill="#99a799" fill-opacity="1"><g transform="translate(237.177998, 64.932601)"><g><path d="M 4.390625 -5.96875 L 4.390625 -4.828125 L 2.9375 -4.828125 L 2.9375 0 L 1.765625 0 L 1.765625 -4.828125 L 0.359375 -4.828125 L 0.359375 -5.96875 Z M 4.390625 -5.96875 "/></g></g></g><g fill="#99a799" fill-opacity="1"><g transform="translate(244.012684, 64.932601)"><g><path d="M 5.734375 -5.96875 L 3.5 -1.859375 L 3.5 0 L 2.3125 0 L 2.3125 -1.859375 L 0.125 -5.96875 L 1.578125 -5.96875 L 2.9375 -3.21875 L 4.28125 -5.96875 Z M 5.734375 -5.96875 "/></g></g></g></svg>