<svg xmlns="http://www.w3.org/2000/svg" xmlns:xlink="http://www.w3.org/1999/xlink" width="500" zoomAndPan="magnify" viewBox="0 0 375 374.999991" height="500" preserveAspectRatio="xMidYMid meet" version="1.0"><defs><g/><clipPath id="3c61da8b41"><path d="M 23 115 L 152 115 L 152 141 L 23 141 Z M 23 115 " clip-rule="nonzero"/></clipPath><clipPath id="b19308ff3c"><path d="M 24.035156 112.671875 L 152.234375 116.292969 L 151.535156 141.035156 L 23.339844 137.414062 Z M 24.035156 112.671875 " clip-rule="nonzero"/></clipPath><clipPath id="e2c02d35d6"><path d="M 152.09375 116.289062 L 23.894531 112.667969 L 23.199219 137.410156 L 151.394531 141.03125 Z M 152.09375 116.289062 " clip-rule="nonzero"/></clipPath></defs><rect x="-37.5" width="450" fill="#ffffff" y="-37.499999" height="449.999989" fill-opacity="1"/><rect x="-37.5" width="450" fill="#d3e4cd" y="-37.499999" height="449.999989" fill-opacity="1"/><g clip-path="url(#3c61da8b41)"><g clip-path="url(#b19308ff3c)"><g clip-path="url(#e2c02d35d6)"><path fill="#99a799" d="M 150.660156 131.304688 C 146.019531 145.910156 120.992188 134.738281 117.644531 132.148438 C 131.683594 119.46875 119.984375 110.160156 115.074219 119.460938 C 106.804688 111.230469 99.261719 125.871094 115.730469 132.496094 C 107.835938 139.144531 84.035156 133.507812 61.761719 122.445312 C 42.617188 112.941406 24.363281 114.890625 23.691406 124.945312 C 24.523438 125.101562 24.976562 124.882812 25.058594 124.582031 C 29.101562 111.171875 53.957031 120.304688 62.613281 124.429688 C 81.542969 133.4375 104.695312 140.5 116.742188 133.40625 C 122.542969 136.082031 145.085938 147.3125 151.628906 132.804688 Z M 116.617188 131.757812 C 102.9375 126.058594 106.199219 111.648438 115.214844 121.527344 C 120.476562 111.070312 128.523438 121.066406 116.617188 131.757812 Z M 116.617188 131.757812 " fill-opacity="1" fill-rule="evenodd"/></g></g></g><g fill="#99a799" fill-opacity="1"><g transform="translate(135.925352, 143.062704)"><g><path d="M 58.257812 14.496094 C 48.890625 14.867188 63.390625 -18.464844 46.984375 -19.894531 C 59.898438 -37.9375 69.15625 -58.574219 72.859375 -46.402344 C 72.703125 -46.402344 73.390625 -46.351562 73.707031 -46.402344 C 69.050781 -61.0625 58.363281 -37.144531 45.980469 -20.054688 C 45.292969 -19.789062 45.292969 -19.894531 42.910156 -19.417969 C 45.082031 -34.234375 44.074219 -49.527344 35.292969 -50.636719 C 25.398438 -51.90625 16.933594 -39.207031 16.984375 -26.457031 C 3.914062 -32.066406 -3.703125 -21.324219 1.746094 -12.433594 L 3.121094 -12.433594 C -2.699219 -19.789062 3.121094 -31.21875 16.878906 -25.714844 C 17.089844 -13.652344 22.277344 -8.464844 25.664062 -9.257812 C 29.472656 -9.789062 32.382812 -18.835938 18.042969 -26.191406 C 17.671875 -37.515625 25.503906 -50.53125 35.292969 -49.789062 C 41.484375 -49.3125 41.800781 -32.277344 38.785156 -15.398438 C 35.453125 3.28125 31.113281 18.519531 19.261719 17.992188 C 5.398438 17.355469 1.746094 -2.488281 20.847656 -7.832031 C 21.90625 -6.824219 23.070312 -8.730469 21.058594 -8.730469 C -0.636719 -4.390625 4.019531 21.535156 23.175781 18.890625 C 37.726562 15.609375 40.371094 -5.449219 42.910156 -18.519531 C 43.96875 -18.835938 45.503906 -19.15625 46.773438 -19.046875 C 58.628906 -18.253906 43.863281 15.503906 57.886719 15.503906 C 63.601562 15.503906 69.15625 1.851562 78.097656 -12.488281 C 78.046875 -13.070312 77.359375 -12.859375 77.199219 -12.59375 C 70.003906 -1.429688 62.753906 14.339844 58.257812 14.496094 Z M 25.925781 -10 C 23.441406 -9.101562 18.625 -11.800781 17.882812 -25.292969 C 30.636719 -18.464844 28.625 -10.953125 25.925781 -10 Z M 25.925781 -10 "/></g></g></g><g fill="#99a799" fill-opacity="1"><g transform="translate(213.015438, 143.062704)"><g><path d="M 6.402344 3.175781 C -0.371094 7.566406 2.910156 -8.570312 4.285156 -16.613281 C 4.65625 -18.785156 1.480469 -18.203125 0.371094 -15.34375 C -0.421875 -12.644531 -1.691406 -3.121094 -0.636719 0.742188 C 0.421875 5.183594 4.019531 5.980469 7.355469 3.4375 C 12.117188 -0.105469 17.671875 -8.625 20.582031 -12.433594 C 20.582031 -12.699219 19.894531 -12.699219 19.683594 -12.488281 C 17.410156 -9.578125 10.953125 0.160156 6.402344 3.175781 Z M 3.28125 -21.324219 C 4.816406 -21.324219 5.554688 -25.1875 4.179688 -25.609375 C 2.011719 -25.820312 1.429688 -21.324219 3.28125 -21.324219 Z M 3.28125 -21.324219 "/></g></g></g><g fill="#99a799" fill-opacity="1"><g transform="translate(232.645098, 143.062704)"><g><path d="M 3.757812 -16.191406 C 3.96875 -18.253906 0.898438 -16.933594 0.371094 -14.816406 C -1.164062 -5.238281 -0.6875 -6.773438 -1.585938 -0.105469 C -1.746094 1.21875 0.316406 2.382812 1.109375 0 L 2.117188 -5.34375 C 6.191406 -19.15625 12.488281 -25.1875 15.238281 -23.175781 C 17.992188 -21.21875 9.894531 0.371094 14.761719 2.910156 C 16.136719 3.597656 16.878906 3.597656 18.730469 2.222656 C 23.492188 -1.324219 28.785156 -8.625 31.695312 -12.433594 C 31.695312 -12.699219 31.007812 -12.699219 30.796875 -12.488281 C 28.519531 -9.578125 22.433594 -0.898438 17.777344 1.957031 C 9.894531 6.773438 22.964844 -18.042969 15.769531 -23.8125 C 13.121094 -25.875 7.671875 -22.433594 3.015625 -10.582031 C 3.28125 -12.328125 3.492188 -13.914062 3.757812 -16.191406 Z M 3.757812 -16.191406 "/></g></g></g><g fill="#99a799" fill-opacity="1"><g transform="translate(263.015518, 143.062704)"><g><path d="M 20.902344 6.03125 C 25.664062 2.488281 32.433594 -8.625 35.34375 -12.433594 C 35.34375 -12.699219 34.65625 -12.699219 34.445312 -12.488281 C 32.171875 -9.578125 24.5 2.75 19.949219 5.765625 C 18.203125 6.878906 16.667969 7.300781 16.03125 6.507812 C 14.128906 4.019531 17.25 -10 18.625 -15.769531 C 35.925781 -35.1875 34.816406 -44.128906 29.472656 -44.128906 C 22.382812 -44.128906 17.039062 -32.804688 14.339844 -13.96875 C 12.859375 -17.515625 10.636719 -20.6875 7.777344 -20.742188 C -1.269531 -20.847656 -3.070312 -1.585938 1.851562 0.105469 C 4.921875 1.164062 9.578125 -3.96875 13.808594 -9.949219 C 12.964844 -3.492188 12.488281 2.167969 13.070312 4.390625 C 14.023438 7.988281 16.667969 9.257812 20.902344 6.03125 Z M 18.785156 -17.144531 C 20.320312 -31.324219 25.820312 -43.28125 29.261719 -43.28125 C 33.597656 -43.28125 34.65625 -36.085938 18.785156 -17.144531 Z M 7.777344 -19.949219 C 10.582031 -20.160156 13.015625 -15.292969 14.128906 -12.433594 L 13.96875 -11.375 C 8.09375 -3.015625 4.179688 0.0546875 2.910156 -0.582031 C 0 -2.0625 3.96875 -19.628906 7.777344 -19.949219 Z M 7.777344 -19.949219 "/></g></g></g><g fill="#99a799" fill-opacity="1"><g transform="translate(297.036741, 143.062704)"><g><path d="M 14.339844 3.175781 C 6.773438 8.359375 12.433594 -15.132812 15.925781 -20.953125 C 16.242188 -22.222656 13.175781 -22.910156 12.117188 -20.582031 L 11.640625 -19.628906 C 8.675781 -20.902344 1.746094 -19.949219 0 -12.644531 C -1.21875 -7.460938 0.847656 -3.914062 3.492188 -4.496094 C 4.972656 -4.816406 6.667969 -8.042969 10.265625 -14.972656 C 6.667969 -5.714844 7.039062 9.523438 15.292969 3.4375 C 20.054688 -0.105469 25.609375 -8.625 28.519531 -12.433594 C 28.519531 -12.699219 27.832031 -12.699219 27.621094 -12.488281 C 25.34375 -9.578125 18.941406 0.210938 14.339844 3.175781 Z M 11.324219 -18.890625 C 8.675781 -13.96875 5.027344 -6.402344 3.863281 -5.554688 C 1.535156 -8.253906 4.65625 -21.535156 11.324219 -18.890625 Z M 11.324219 -18.890625 "/></g></g></g><g fill="#99a799" fill-opacity="1"><g transform="translate(229.437807, 173.225789)"><g><path d="M 5.515625 -4.859375 C 6.046875 -4.648438 6.46875 -4.351562 6.78125 -3.96875 C 7.09375 -3.582031 7.25 -3.132812 7.25 -2.625 C 7.25 -2.03125 7.101562 -1.535156 6.8125 -1.140625 C 6.519531 -0.753906 6.140625 -0.46875 5.671875 -0.28125 C 5.203125 -0.09375 4.6875 0 4.125 0 L 1.34375 0 L 1.34375 -9.359375 L 3.765625 -9.359375 C 4.722656 -9.359375 5.460938 -9.160156 5.984375 -8.765625 C 6.515625 -8.367188 6.78125 -7.78125 6.78125 -7 C 6.78125 -6.507812 6.671875 -6.078125 6.453125 -5.703125 C 6.234375 -5.335938 5.921875 -5.054688 5.515625 -4.859375 Z M 2.59375 -5.265625 L 4.03125 -5.265625 C 4.507812 -5.265625 4.867188 -5.398438 5.109375 -5.671875 C 5.359375 -5.953125 5.484375 -6.304688 5.484375 -6.734375 C 5.484375 -7.210938 5.335938 -7.566406 5.046875 -7.796875 C 4.753906 -8.035156 4.34375 -8.15625 3.8125 -8.15625 L 2.59375 -8.15625 Z M 4.078125 -1.171875 C 4.617188 -1.171875 5.066406 -1.289062 5.421875 -1.53125 C 5.773438 -1.78125 5.953125 -2.140625 5.953125 -2.609375 C 5.953125 -3.097656 5.757812 -3.457031 5.375 -3.6875 C 4.988281 -3.925781 4.523438 -4.046875 3.984375 -4.046875 L 2.59375 -4.046875 L 2.59375 -1.171875 Z M 4.078125 -1.171875 "/></g></g></g><g fill="#99a799" fill-opacity="1"><g transform="translate(240.774116, 173.225789)"><g><path d="M 7.421875 -9.359375 L 7.421875 -8.15625 L 2.59375 -8.15625 L 2.59375 -5.296875 L 6.90625 -5.296875 L 6.90625 -4.09375 L 2.59375 -4.09375 L 2.59375 -1.21875 L 7.609375 -1.21875 L 7.609375 0 L 1.34375 0 L 1.34375 -9.359375 Z M 7.421875 -9.359375 "/></g></g></g><g fill="#99a799" fill-opacity="1"><g transform="translate(252.550302, 173.225789)"><g><path d="M 6.25 -2.453125 L 2.65625 -2.453125 L 1.65625 0 L 0.40625 0 L 4.5 -9.734375 L 4.578125 -9.734375 L 8.671875 0 L 7.21875 0 Z M 5.828125 -3.546875 L 4.484375 -6.953125 L 3.109375 -3.546875 Z M 5.828125 -3.546875 "/></g></g></g><g fill="#99a799" fill-opacity="1"><g transform="translate(264.947488, 173.225789)"><g><path d="M 2.484375 -3.3125 C 2.484375 -2.894531 2.582031 -2.519531 2.78125 -2.1875 C 2.976562 -1.851562 3.242188 -1.585938 3.578125 -1.390625 C 3.921875 -1.203125 4.300781 -1.109375 4.71875 -1.109375 C 5.15625 -1.109375 5.546875 -1.203125 5.890625 -1.390625 C 6.242188 -1.585938 6.519531 -1.851562 6.71875 -2.1875 C 6.914062 -2.519531 7.015625 -2.894531 7.015625 -3.3125 L 7.015625 -9.359375 L 8.234375 -9.359375 L 8.234375 -3.265625 C 8.234375 -2.609375 8.078125 -2.019531 7.765625 -1.5 C 7.460938 -0.988281 7.039062 -0.59375 6.5 -0.3125 C 5.96875 -0.03125 5.375 0.109375 4.71875 0.109375 C 4.070312 0.109375 3.476562 -0.03125 2.9375 -0.3125 C 2.40625 -0.59375 1.988281 -0.988281 1.6875 -1.5 C 1.382812 -2.019531 1.234375 -2.609375 1.234375 -3.265625 L 1.234375 -9.359375 L 2.484375 -9.359375 Z M 2.484375 -3.3125 "/></g></g></g><g fill="#99a799" fill-opacity="1"><g transform="translate(277.745735, 173.225789)"><g><path d="M 6.875 -9.359375 L 6.875 -8.15625 L 4.359375 -8.15625 L 4.359375 0 L 3.109375 0 L 3.109375 -8.15625 L 0.65625 -8.15625 L 0.65625 -9.359375 Z M 6.875 -9.359375 "/></g></g></g><g fill="#99a799" fill-opacity="1"><g transform="translate(288.603351, 173.225789)"><g><path d="M 8.59375 -9.359375 L 5.078125 -3.125 L 5.078125 0 L 3.828125 0 L 3.828125 -3.125 L 0.359375 -9.359375 L 1.921875 -9.359375 L 4.484375 -4.546875 L 7.046875 -9.359375 Z M 8.59375 -9.359375 "/></g></g></g></svg>